<svg width="50" height="59" xmlns="http://www.w3.org/2000/svg" xmlns:xlink="http://www.w3.org/1999/xlink" xml:space="preserve" overflow="hidden"><defs><clipPath id="clip0"><rect x="502" y="330" width="50" height="59"/></clipPath><clipPath id="clip1"><rect x="502" y="330" width="50" height="59"/></clipPath><clipPath id="clip2"><rect x="503" y="331" width="49" height="58"/></clipPath><clipPath id="clip3"><rect x="503" y="331" width="49" height="58"/></clipPath></defs><g clip-path="url(#clip0)" transform="translate(-502 -330)"><g clip-path="url(#clip1)"><g clip-path="url(#clip2)"><g clip-path="url(#clip3)"><g><g><path d="M44.736 27.1215C44.736 26.6627 44.3572 26.2818 43.9009 26.2818 43.832 26.2818 43.7717 26.2904 43.7029 26.3077 36.2901 27.84 28.5674 28.446 20.6552 28.0131 18.2187 27.8833 15.8166 28.0131 13.4576 28.1949 13.2768 28.2123 13.096 28.2296 12.9238 28.2555 11.0297 28.5153 9.23034 29.3462 7.81838 30.714 6.56999 31.926 5.69182 33.4928 5.31301 35.1896 4.86531 37.2326 5.18386 39.3447 6.05342 41.2406 6.89715 43.0758 8.24885 44.6687 9.91908 45.8113 11.7357 47.0233 13.7418 47.9755 15.8425 48.6074 17.1683 49.0057 18.3479 49.2481 19.734 49.4212 19.7512 48.9018 20.5519 48.0794 20.5777 47.6899 20.6035 47.3003 20.3022 46.9454 19.9147 46.9194 17.7451 46.9973 16.1524 46.9454 14.1205 46.1923 12.0371 45.4131 10.1429 44.1319 8.64489 42.4785 7.92169 41.6907 7.32763 40.8164 6.94881 39.8123 6.56999 38.8167 6.40641 37.7433 6.46668 36.6785 6.67331 33.1033 9.4628 30.082 13.0271 29.5713 14.9987 29.2857 17.0392 29.7964 18.6405 30.9651 19.4757 31.5797 20.1988 32.3588 20.7241 33.2504 21.3181 34.2546 21.8174 35.3194 22.1618 36.4447 22.885 38.7734 22.9453 41.3272 22.6353 43.7338 22.4976 44.7553 22.291 45.7681 21.9982 46.7549 21.8346 47.3176 21.6367 47.8803 21.4128 48.417 21.3698 48.5209 21.3526 48.6247 21.3526 48.7373 21.3526 49.1961 21.7141 49.5597 22.1705 49.5684 22.2221 49.5684 22.3254 49.5684 22.3771 49.5684 27.8613 49.5684 32.8807 47.6033 36.7722 44.3484 36.7722 44.3484 36.7808 44.3484 36.7894 44.3397 36.9444 44.1839 37.0391 43.9761 37.0391 43.7511 37.0391 43.578 36.9788 43.4307 36.9014 43.2923 35.4464 40.7731 32.2694 37.1546 32.2694 37.1546 32.2694 37.1546 35.8596 40.3576 38.4424 41.76 38.5802 41.838 38.7352 41.8985 38.9074 41.8985 39.1398 41.8985 39.3464 41.8033 39.4928 41.6561 39.4928 41.6474 39.51 41.6388 39.5186 41.6301 42.7902 37.7606 44.7532 32.7743 44.7532 27.3292L44.7532 27.1215" fill="#0B8BEE" fill-rule="nonzero" fill-opacity="1" transform="matrix(1.0148 0 0 1 503 331)"/><path d="M4.23611 37.3104C3.34933 35.3627 2.80693 33.2504 2.67779 31.1123 2.66057 30.8266 2.66918 30.437 2.66057 30.1427 2.66057 29.7445 2.33341 29.4155 1.93737 29.4155 1.54134 29.4155 0.68899 30.1427 0.0863236 30.1427 0.697599 34.8433 2.83276 39.2928 6.13882 42.7123 7.7488 44.3916 9.75482 45.6815 12.0277 46.2961 13.9821 46.8242 16.0484 46.5818 17.8563 45.6815 18.7173 45.2486 19.5094 44.66 20.1723 43.9501 20.8697 43.197 21.4121 42.2794 21.9114 41.3877 22.4367 40.4442 22.893 39.4573 23.3062 38.4618 23.7453 37.397 24.1069 36.3062 24.5891 35.2588 26.4056 31.3027 28.9713 27.6842 32.4323 24.9919 34.1284 23.6761 35.9708 22.5681 37.9338 21.7024 38.9324 21.2609 39.957 20.8887 40.9987 20.5684 41.4981 20.4212 42.0061 20.2827 42.514 20.1615 42.9703 20.023 43.22 19.5382 43.0737 19.0967 41.7994 15.9024 39.7677 13.0197 37.1933 10.7343 37.1761 10.717 37.1589 10.7084 37.1417 10.6911 36.9953 10.5612 36.8059 10.4833 36.5907 10.4833 36.3669 10.4833 36.1688 10.6218 35.988 10.743 31.8641 13.5997 28.8163 18.3609 28.8163 18.3609 28.8163 18.3609 30.4263 14.2923 33.8615 9.27134 33.9476 9.15015 33.982 8.99432 33.982 8.8385 33.982 8.55284 33.8443 8.30179 33.629 8.15462 33.6032 8.13731 33.5774 8.12 33.543 8.10269 31.425 6.87343 29.1004 5.98179 26.6812 5.50566 24.9248 5.15074 23.1168 5.01223 21.326 5.09015L21.283 5.09015C20.8353 5.10746 20.4909 5.47104 20.4737 5.92119 20.2499 11.7645 21.3949 21.8149 21.3949 21.8149 21.3949 21.8149 19.3458 11.9116 17.3226 6.41462 17.202 6.07701 16.9007 5.82597 16.5305 5.82597 16.4789 5.82597 16.4186 5.82597 16.3669 5.84328 16.3669 5.84328 16.3584 5.84328 16.3497 5.84328 16.2033 5.88657 16.057 5.92119 15.9192 5.96447 12.5443 6.96 9.41904 8.7606 6.87063 11.1672 6.43154 11.5827 6.00967 12.0155 5.60502 12.4657 5.59642 12.4743 5.58781 12.4916 5.5792 12.4916 5.44144 12.6388 5.35536 12.838 5.35536 13.0543 5.35536 13.2707 5.43284 13.5218 5.60502 13.643 10.0131 16.9758 13.2675 20.7761 13.2675 20.7761 13.2675 20.7761 9.10049 17.7116 4.13279 15.7639 3.99505 15.7119 3.85729 15.6427 3.70233 15.6427 3.41821 15.6427 3.15993 15.7899 3.00495 16.0062 3.00495 16.0062 3.00495 16.0149 3.00495 16.0235 2.28175 17.2355 1.67909 18.5254 1.20556 19.8499 0.594288 21.5553 0.206857 23.3212 0.0260571 25.1045-0.0169905 25.5633-0.051426 26.0307 0.422097 26.2818 0.611507 26.3857 0.809525 26.403 1.01615 26.3597 1.3261 26.2991 1.62743 26.2385 1.93737 26.1866 3.11688 25.9961 4.32221 25.9009 5.51032 25.9182 7.90377 25.9442 10.2973 26.377 12.5443 27.2081 14.6192 27.9785 16.5133 29.1904 17.9424 30.8785 20.6458 34.0728 22.0836 39.5612 18.967 42.9546 17.5465 44.5215 15.4371 45.2833 13.3278 45.0928 12.243 44.9889 11.2873 44.6167 10.3402 44.106 9.47931 43.6385 8.66141 43.1018 7.92099 42.4526 6.31962 41.0415 5.09707 39.2062 4.2275 37.2758" fill="#FFCD00" fill-rule="nonzero" fill-opacity="1" transform="matrix(1.0148 0 0 1 503 331)"/><path d="M60.8859 15.357C60.8859 12.7946 61.4283 12.5176 64.7429 12.102L64.7429 10.7257 51.7254 10.7257 51.7254 12.102C54.9884 12.5176 55.5825 12.786 55.5825 15.357L55.5825 31.7961C55.5825 39.6738 60.3435 43.3355 67.9629 43.3355 74.4459 43.3355 79.6202 39.6738 79.6202 31.9346L79.6202 15.4003C79.6202 12.838 80.2056 12.5176 83.4773 12.102L83.4773 10.7257 73.1803 10.7257 73.1803 12.102C76.9427 12.4657 77.5797 12.838 77.5797 15.4003L77.5797 31.1123C77.5797 37.8472 74.0412 40.6346 68.5139 40.6346 63.572 40.6346 60.8945 37.198 60.8945 31.4326L60.8945 15.357 60.8859 15.357Z" fill="#0B8BEE" fill-rule="nonzero" fill-opacity="1" transform="matrix(1.0148 0 0 1 503 331)"/><path d="M83.4599 10.7343 82.7798 20.7674 84.0024 20.7674C86.6799 14.1711 87.6786 12.2492 91.441 12.2492L94.3855 12.2492 94.3855 38.4012C94.3855 40.9636 93.2059 41.102 90.0807 41.5176L90.0807 42.894 103.96 42.894 103.96 41.5176C100.877 41.102 99.6971 40.9723 99.6971 38.4012L99.6971 12.2492 102.599 12.2492C106.361 12.2492 107.36 14.1711 110.081 20.7674L111.26 20.7674 110.579 10.7343 83.4599 10.7343Z" fill="#0B8BEE" fill-rule="nonzero" fill-opacity="1" transform="matrix(1.0148 0 0 1 503 331)"/><path d="M120.61 41.8293C116.572 41.8293 115.203 36.4708 115.203 30.1081 115.203 23.7454 117.106 19.9451 120.825 19.9451 124.906 19.9451 126.723 25.2603 126.723 31.6663 126.723 38.0723 124.329 41.8293 120.61 41.8293ZM120.817 43.3442C127.162 43.3442 132.061 38.1674 132.061 30.2899 132.061 23.2346 127.661 18.4301 121.04 18.4301 114.419 18.4301 109.796 23.6069 109.796 31.4326 109.796 38.5743 114.196 43.3355 120.817 43.3355L120.817 43.3442Z" fill="#0B8BEE" fill-rule="nonzero" fill-opacity="1" transform="matrix(1.0148 0 0 1 503 331)"/><path d="M140.92 29.8311 151.166 42.8854 156.701 42.8854 156.701 41.9245 145.5 27.9526 152.027 21.9101C153.068 20.9492 153.929 20.5857 155.651 20.2134L155.651 18.8889 146.353 18.8889 146.353 20.2134C148.488 20.4385 149.349 20.5338 149.349 21.4081 149.349 22.0054 148.85 22.5508 148.126 23.1913L140.92 29.8311ZM135.342 39.4054C135.342 41.102 134.618 41.4224 132.345 41.5609L132.345 42.8854 143.408 42.8854 143.408 41.5609C141.144 41.4224 140.412 41.102 140.412 39.4054L140.412 7.02926 139.637 7.02926 132.474 9.27135 132.474 9.95526 135.333 11.5134 135.333 39.4054 135.342 39.4054Z" fill="#0B8BEE" fill-rule="nonzero" fill-opacity="1" transform="matrix(1.0148 0 0 1 503 331)"/><path d="M169.158 37.6654 163.313 23.0096C163.132 22.4642 163.037 22.0919 163.037 21.7284 163.037 20.6722 163.855 20.4904 166.162 20.2134L166.162 18.8889 155.099 18.8889 155.099 20.2134C156.735 20.6289 157.002 20.9492 157.415 21.9101L166.8 43.6212 165.981 45.82C164.94 48.6593 163.399 49.3433 160.945 49.3433 159.68 49.3433 159 49.1615 158.13 48.9277L158.13 50.7111C158.535 52.0874 160.033 52.9099 161.488 52.9099 164.345 52.9099 165.749 50.9447 167.11 47.4561L176.907 21.9015C177.269 20.9839 177.587 20.6203 179.223 20.2047L179.223 18.8803 171.699 18.8803 171.699 20.2047C174.015 20.4818 174.824 20.6635 174.824 21.7197 174.824 22.0833 174.729 22.4555 174.549 23.0009L169.15 37.6567 169.158 37.6654Z" fill="#0B8BEE" fill-rule="nonzero" fill-opacity="1" transform="matrix(1.0148 0 0 1 503 331)"/><path d="M189.048 41.8293C185.01 41.8293 183.201 36.4708 183.201 30.1081 183.201 23.7454 185.105 19.9451 188.823 19.9451 192.905 19.9451 194.722 25.2603 194.722 31.6663 194.722 38.0723 192.775 41.8293 189.056 41.8293L189.048 41.8293ZM188.823 43.3442C195.169 43.3442 200.068 38.1674 200.068 30.2899 200.068 23.2346 195.668 18.4301 189.048 18.4301 182.427 18.4301 177.803 23.6069 177.803 31.4326 177.803 38.5743 182.203 43.3355 188.823 43.3355L188.823 43.3442Z" fill="#0B8BEE" fill-rule="nonzero" fill-opacity="1" transform="matrix(1.0148 0 0 1 503 331)"/><path d="M221.29 22.9835 221.29 22.5334C221.402 22.4815 226.284 19.1746 227.23 18.4647 227.472 18.3003 227.764 18.0839 228.014 18.0839 228.263 18.0839 228.203 18.4215 228.203 18.6985L228.203 36.9209C228.203 37.7953 228.556 38.1415 229.426 38.3319 229.83 38.4099 230.7 38.5657 230.967 38.583L230.967 39.0331 221.566 39.0331 221.566 38.583C221.867 38.557 223.167 38.3579 223.658 38.2713 224.492 38.1328 224.785 37.6654 224.785 36.7477L224.785 21.6418 221.29 22.9835Z" fill="#000000" fill-rule="nonzero" fill-opacity="1" transform="matrix(1.0148 0 0 1 503 331)"/><path d="M233.215 34.2546C233.215 37.3104 235.014 38.0116 236.908 38.0116 239.069 38.0116 241.368 36.566 241.368 33.034 241.368 28.6797 236.659 26.8877 234.523 26.5847 234.196 26.5328 234.006 26.3943 234.033 26.0394L234.652 18.8543C234.679 18.586 234.868 18.4994 235.169 18.4994 235.169 18.4994 242.125 18.5081 242.668 18.5081 242.892 18.5081 243.649 18.3262 243.796 18.2916 244.054 18.2397 244.097 18.3349 244.072 18.6206 244.036 19.0101 243.736 22.3516 243.736 22.3516L243.288 22.3516C243.305 21.46 243.073 20.7761 240.877 20.7761L236.065 20.7761C236.004 20.7761 235.944 20.8281 235.944 20.8887L235.669 23.9964C235.669 24.057 235.703 24.1176 235.772 24.1262 239.775 24.8015 244.536 27.0262 244.536 31.7096 244.536 35.3281 241.91 39.3534 235.642 39.3534 234.782 39.3534 233.774 39.1889 233.103 38.86 232.957 38.782 232.844 38.7042 232.776 38.6089L232.776 34.22 233.223 34.22 233.215 34.2546Z" fill="#000000" fill-rule="nonzero" fill-opacity="1" transform="matrix(1.0148 0 0 1 503 331)"/><path d="M253.963 39.414C248.531 39.414 246.74 33.2072 246.74 29.3462 246.74 23.0096 249.28 18.0839 254.394 18.0839 259.853 18.0839 261.617 23.7973 261.617 28.1257 261.617 35.0338 258.802 39.414 253.963 39.414ZM253.826 19.3045C251.743 19.3045 250.124 22.1092 250.124 28.3074 250.124 33.0167 251.372 38.1847 254.48 38.1847 256.727 38.1847 258.243 35.2155 258.243 29.1818 258.243 24.2042 257.08 19.3045 253.835 19.3045L253.826 19.3045Z" fill="#000000" fill-rule="nonzero" fill-opacity="1" transform="matrix(1.0148 0 0 1 503 331)"/><path d="M213.775 35.5012 214.05 36.7651 213.353 36.9209 212.604 33.5015 213.301 33.3457 213.577 34.6096 218.278 33.5794 218.467 34.4624 213.766 35.5012 213.775 35.5012Z" fill="#000000" fill-rule="nonzero" fill-opacity="1" transform="matrix(1.0148 0 0 1 503 331)"/><path d="M212.371 31.6749 212.346 30.7833 214.722 30.7227 214.67 28.7057 212.294 28.7662 212.268 27.866 217.795 27.7188 217.821 28.6191 215.41 28.6797 215.462 30.6967 217.873 30.6274 217.898 31.5191 212.371 31.6662 212.371 31.6749Z" fill="#000000" fill-rule="nonzero" fill-opacity="1" transform="matrix(1.0148 0 0 1 503 331)"/><path d="M212.467 25.7104 212.941 22.7845 213.638 22.897 213.31 24.94 214.895 25.1997 215.161 23.5462 215.833 23.6588 215.566 25.3123 217.356 25.6066 217.702 23.4511 218.398 23.5635 217.908 26.602 212.458 25.7104 212.467 25.7104Z" fill="#000000" fill-rule="nonzero" fill-opacity="1" transform="matrix(1.0148 0 0 1 503 331)"/><path d="M215.712 15.1926 219.061 16.7421C220.197 17.2701 220.525 18.1618 220.008 19.2958 219.517 20.3606 218.656 20.7328 217.529 20.2134L214.136 18.6466 214.514 17.8155 217.864 19.3651C218.63 19.72 219.061 19.5901 219.345 18.9755 219.612 18.3869 219.474 17.9454 218.63 17.5558L215.325 16.0323 215.703 15.2012 215.712 15.1926Z" fill="#000000" fill-rule="nonzero" fill-opacity="1" transform="matrix(1.0148 0 0 1 503 331)"/><path d="M216.849 13.2708 217.486 12.4051 221.8 13.2534 218.614 10.8728 219.096 10.215 223.53 13.5304 222.971 14.2836 218.33 13.3573 221.765 15.9197 221.283 16.5776 216.849 13.2621 216.849 13.2708Z" fill="#000000" fill-rule="nonzero" fill-opacity="1" transform="matrix(1.0148 0 0 1 503 331)"/><path d="M220.489 8.7606 221.126 8.12001 225.018 12.0674 224.381 12.7081 220.489 8.7606Z" fill="#000000" fill-rule="nonzero" fill-opacity="1" transform="matrix(1.0148 0 0 1 503 331)"/><path d="M224.914 5.01225 225.594 4.51016 227.686 9.86865 226.792 10.5353 222.306 6.96001 223.046 6.40598 226.714 9.41852 224.914 5.01225Z" fill="#000000" fill-rule="nonzero" fill-opacity="1" transform="matrix(1.0148 0 0 1 503 331)"/><path d="M226.982 3.71373 229.616 2.38926 229.935 3.02985 228.092 3.95612 228.807 5.4018 230.296 4.65731 230.598 5.27194 229.109 6.01642 229.918 7.65254 231.863 6.67434 232.182 7.31493 229.444 8.69135 226.974 3.72239 226.982 3.71373Z" fill="#000000" fill-rule="nonzero" fill-opacity="1" transform="matrix(1.0148 0 0 1 503 331)"/><path d="M231.458 1.65344 232.982 1.21194C234.042 0.900304 234.842 1.15135 235.126 2.14687L235.178 2.31135C235.41 3.10777 235.101 3.6012 234.567 3.93881L236.487 5.97313 235.557 6.2415 233.758 4.30239 233.197 4.46687 233.852 6.74359 233 6.99463 231.458 1.65344ZM233.689 3.64448C234.274 3.47135 234.498 3.13374 234.334 2.55374L234.291 2.39792C234.127 1.82658 233.758 1.71404 233.181 1.87851L232.509 2.07762 233.016 3.84359 233.689 3.64448Z" fill="#000000" fill-rule="nonzero" fill-opacity="1" transform="matrix(1.0148 0 0 1 503 331)"/><path d="M236.83 4.26777 237.691 4.1812C237.794 4.81313 238.053 5.15075 238.776 5.0815 239.267 5.02955 239.585 4.7006 239.533 4.16389 239.473 3.58389 239.18 3.40209 238.406 3.23762 237.372 3.0212 236.804 2.68359 236.719 1.73135 236.632 0.865678 237.217 0.207767 238.199 0.112543 239.207 0.0173192 239.878 0.441498 240.033 1.44567L239.207 1.52359C239.095 0.943587 238.767 0.744483 238.268 0.796423 237.769 0.848364 237.519 1.14269 237.562 1.58419 237.605 2.06031 237.821 2.24209 238.639 2.41523 239.671 2.62299 240.309 2.93463 240.412 3.9994 240.506 4.98627 239.878 5.67881 238.853 5.77404 237.64 5.89523 236.994 5.31523 236.839 4.25911L236.83 4.26777Z" fill="#000000" fill-rule="nonzero" fill-opacity="1" transform="matrix(1.0148 0 0 1 503 331)"/><path d="M241.807 0.0432905 242.71 0.0779173 242.487 5.63553 241.583 5.6009 241.807 0.0432905Z" fill="#000000" fill-rule="nonzero" fill-opacity="1" transform="matrix(1.0148 0 0 1 503 331)"/><path d="M245.277 1.06478 244.012 0.848362 244.132 0.138512 247.568 0.718512 247.447 1.42836 246.173 1.21194 245.371 5.99045 244.485 5.84328 245.277 1.06478Z" fill="#000000" fill-rule="nonzero" fill-opacity="1" transform="matrix(1.0148 0 0 1 503 331)"/><path d="M248.773 4.37166 248.308 0.891655 249.238 1.20329 249.495 3.73106 251.183 1.85255 252.001 2.12956 249.634 4.66598 248.885 6.9427 248.015 6.65702 248.764 4.38031 248.773 4.37166Z" fill="#000000" fill-rule="nonzero" fill-opacity="1" transform="matrix(1.0148 0 0 1 503 331)"/><path d="M253.292 6.39731 253.895 5.4797C254.661 4.3197 255.926 4.06 257.037 4.80447 258.148 5.54896 258.398 6.79553 257.631 7.94687L257.028 8.86447C256.263 10.0158 255.023 10.3188 253.895 9.56567 252.758 8.80388 252.543 7.54 253.292 6.39731ZM256.254 8.35373 256.856 7.44478C257.365 6.67433 257.339 5.86926 256.641 5.4018 255.935 4.92567 255.212 5.17672 254.678 5.9818L254.075 6.8994C253.534 7.71313 253.628 8.50089 254.3 8.95104 254.989 9.40985 255.72 9.15881 256.254 8.35373Z" fill="#000000" fill-rule="nonzero" fill-opacity="1" transform="matrix(1.0148 0 0 1 503 331)"/><path d="M260.36 7.4621 262.444 9.53106 261.945 10.0418 260.498 8.60479 259.267 9.86 260.421 11.0113 259.929 11.5135 258.776 10.3621 257.123 12.0501 256.486 11.4182 260.369 7.4621 260.36 7.4621Z" fill="#000000" fill-rule="nonzero" fill-opacity="1" transform="matrix(1.0148 0 0 1 503 331)"/><path d="M264.434 13.3227 263.737 12.2406 264.331 11.8511 266.216 14.7943 265.622 15.1839 264.924 14.0931 260.869 16.7161 260.388 15.9543 264.434 13.3313 264.434 13.3227Z" fill="#000000" fill-rule="nonzero" fill-opacity="1" transform="matrix(1.0148 0 0 1 503 331)"/><path d="M263.866 17.3308 264.873 16.9239C266.156 16.4045 267.344 16.9153 267.843 18.1531 268.342 19.3911 267.843 20.5684 266.569 21.0878L265.561 21.4946C264.287 22.014 263.091 21.5466 262.583 20.2827 262.074 19.0101 262.608 17.8415 263.866 17.3308ZM265.2 20.6289 266.207 20.2221C267.06 19.8758 267.49 19.2007 267.18 18.4215 266.862 17.6251 266.13 17.426 265.234 17.7809L264.227 18.1878C263.323 18.5513 262.961 19.2526 263.263 20.0057 263.573 20.7761 264.322 20.9839 265.208 20.6289L265.2 20.6289Z" fill="#000000" fill-rule="nonzero" fill-opacity="1" transform="matrix(1.0148 0 0 1 503 331)"/><path d="M269.116 22.2911 269.27 23.1827 266.8 23.6242 269.581 24.94 269.744 25.8836 266.851 24.4726 264.321 26.9397 264.14 25.9269 266.438 23.6935 263.829 24.1609 263.675 23.2693 269.116 22.2997 269.116 22.2911Z" fill="#000000" fill-rule="nonzero" fill-opacity="1" transform="matrix(1.0148 0 0 1 503 331)"/><path d="M266.715 28.6624 269.875 27.1734 269.857 28.1603 267.541 29.1645 269.823 30.2206 269.806 31.0949 266.689 29.58 264.304 29.5367 264.322 28.6191 266.707 28.6624 266.715 28.6624Z" fill="#000000" fill-rule="nonzero" fill-opacity="1" transform="matrix(1.0148 0 0 1 503 331)"/><path d="M266.499 31.623 267.567 31.8308C268.927 32.0904 269.651 33.1639 269.401 34.4797 269.151 35.7955 268.101 36.514 266.749 36.2543L265.681 36.0466C264.33 35.7869 263.572 34.7481 263.83 33.4062 264.089 32.0645 265.165 31.3633 266.499 31.623ZM265.845 35.1203 266.904 35.3281C267.808 35.5012 268.531 35.1636 268.686 34.3412 268.85 33.5015 268.341 32.9301 267.395 32.7484L266.327 32.5406C265.372 32.3588 264.691 32.7484 264.536 33.5447 264.382 34.3585 264.898 34.9472 265.845 35.1289L265.845 35.1203Z" fill="#000000" fill-rule="nonzero" fill-opacity="1" transform="matrix(1.0148 0 0 1 503 331)"/><path d="M222.539 49.1355 223.211 49.6809C222.85 50.2003 222.798 50.6245 223.357 51.0833 223.744 51.395 224.201 51.3776 224.537 50.9535 224.898 50.4946 224.812 50.157 224.373 49.4991 223.788 48.6161 223.616 47.9842 224.201 47.2311 224.743 46.5472 225.613 46.4866 226.388 47.1099 227.18 47.7418 227.361 48.5209 226.775 49.3519L226.121 48.8239C226.448 48.3304 226.344 47.9582 225.949 47.6466 225.553 47.335 225.174 47.3696 224.898 47.7158 224.605 48.0881 224.623 48.3738 225.088 49.0663 225.682 49.9407 225.923 50.6158 225.26 51.4469 224.64 52.226 223.71 52.2693 222.91 51.6286 221.954 50.8582 221.894 49.9926 222.522 49.1355L222.539 49.1355Z" fill="#000000" fill-rule="nonzero" fill-opacity="1" transform="matrix(1.0148 0 0 1 503 331)"/><path d="M228.583 48.772 229.358 49.2394 226.508 54.0007 225.733 53.5331 228.583 48.772Z" fill="#000000" fill-rule="nonzero" fill-opacity="1" transform="matrix(1.0148 0 0 1 503 331)"/><path d="M230.392 49.8886 231.382 50.2955 231.622 54.7191 233.13 51.0227 233.878 51.3343 231.778 56.4765 230.917 56.1215 230.667 51.3689 229.04 55.3424 228.291 55.0308 230.392 49.8886Z" fill="#000000" fill-rule="nonzero" fill-opacity="1" transform="matrix(1.0148 0 0 1 503 331)"/><path d="M234 54.8143 234.197 53.7669C234.465 52.3731 235.523 51.6546 236.754 51.8884 237.787 52.0874 238.493 52.7627 238.347 53.966L237.46 53.7928C237.512 53.0916 237.253 52.7108 236.616 52.5809 235.867 52.4338 235.299 52.9272 235.109 53.9227L234.912 54.9788C234.722 55.983 235.033 56.6235 235.824 56.7794 236.436 56.9006 236.935 56.6496 237.141 55.9051L237.994 56.0696C237.666 57.2988 236.78 57.7057 235.695 57.498 234.335 57.2382 233.732 56.2167 234 54.8057L234 54.8143Z" fill="#000000" fill-rule="nonzero" fill-opacity="1" transform="matrix(1.0148 0 0 1 503 331)"/><path d="M239.646 52.3558 242.59 52.4078 242.59 53.1262 240.524 53.0916 240.498 54.7104 242.16 54.7365 242.16 55.4203 240.49 55.3943 240.455 57.2209 242.625 57.2555 242.625 57.974 239.552 57.9221 239.646 52.3645 239.646 52.3558Z" fill="#000000" fill-rule="nonzero" fill-opacity="1" transform="matrix(1.0148 0 0 1 503 331)"/><path d="M245.863 52.8146 245.045 53.7236 244.882 52.9272 245.769 51.9057 246.552 51.7412 247.662 57.1863 246.784 57.3681 245.854 52.8146 245.863 52.8146Z" fill="#000000" fill-rule="nonzero" fill-opacity="1" transform="matrix(1.0148 0 0 1 503 331)"/><path d="M248.928 55.3943 248.85 55.1866C248.618 54.546 248.816 54.018 249.255 53.6543 248.765 53.637 248.378 53.386 248.179 52.8493L248.145 52.754C247.826 51.8797 248.36 51.1699 249.161 50.8669 249.97 50.5639 250.822 50.7716 251.132 51.6286L251.167 51.7326C251.365 52.2693 251.21 52.7194 250.848 53.057 251.443 53.0397 251.916 53.3254 252.149 53.9487L252.226 54.1565C252.587 55.1433 252.011 55.8965 251.107 56.234 250.22 56.563 249.281 56.3812 248.928 55.403L248.928 55.3943ZM250.383 52.0701 250.341 51.9489C250.168 51.4901 249.798 51.3343 249.393 51.4901 248.989 51.6373 248.79 51.9923 248.971 52.477L249.015 52.5896C249.187 53.0743 249.574 53.2215 249.979 53.0657 250.401 52.9099 250.564 52.5462 250.392 52.0701L250.383 52.0701ZM251.374 54.4247 251.287 54.1997C251.081 53.6457 250.65 53.4812 250.185 53.6543 249.737 53.8188 249.471 54.2343 249.686 54.8057L249.773 55.0308C249.979 55.5934 250.426 55.7406 250.891 55.5674 251.365 55.3943 251.588 54.9961 251.374 54.4161L251.374 54.4247Z" fill="#000000" fill-rule="nonzero" fill-opacity="1" transform="matrix(1.0148 0 0 1 503 331)"/><path d="M253.491 49.6982 251.554 50.7977 251.192 50.157 254.085 48.5209 254.137 48.6161 255.29 54.217 254.498 54.6672 253.483 49.7155 253.491 49.6982Z" fill="#000000" fill-rule="nonzero" fill-opacity="1" transform="matrix(1.0148 0 0 1 503 331)"/><path d="M256.744 47.3523 255.013 48.7546 254.549 48.1833 257.141 46.0884 257.209 46.175 259.267 51.5074 258.561 52.0788 256.744 47.3609 256.744 47.3523Z" fill="#000000" fill-rule="nonzero" fill-opacity="1" transform="matrix(1.0148 0 0 1 503 331)"/><path d="M216.237 43.6904C216.383 43.6299 216.702 43.474 216.917 43.3701 217.227 43.2143 217.468 43.0845 217.494 43.0672 217.545 43.0412 217.588 43.0499 217.614 43.0758 217.641 43.1018 217.632 43.1538 217.597 43.1884 217.563 43.223 217.399 43.3355 217.072 43.6126 216.633 43.9761 216.633 44.0021 216.478 44.1319 216.34 44.2445 216.349 44.3311 216.461 44.4523 216.53 44.5215 217.098 45.2486 218.182 45.5863 218.803 45.7854 219.552 45.8807 220.516 45.5689 220.567 45.5516 220.636 45.5343 220.662 45.4565 220.688 45.3958 220.662 45.3353 220.567 45.2227 220.317 44.9284 219.973 44.0713 219.973 43.2663 219.973 42.418 220.628 41.6215 220.903 41.2839 220.954 41.2233 220.989 41.18 220.963 41.1367 220.947 41.1021 220.912 41.0935 220.826 41.1021 220.576 41.1021 220.085 41.2233 219.353 40.9982 219.009 40.8943 218.432 40.7039 217.838 40.297 217.296 39.9247 216.951 39.5007 216.891 39.4227 216.831 39.3535 216.788 39.2755 216.711 39.2755 216.633 39.2755 216.59 39.3274 216.512 39.4227 216.47 39.4746 216.194 39.7689 215.962 40.2278 215.746 40.6433 215.582 41.1973 215.548 41.7254 215.488 42.7815 215.866 43.5173 215.893 43.5953 215.927 43.6818 215.97 43.7338 216.013 43.7511 216.081 43.7684 216.125 43.7511 216.22 43.6991L216.237 43.6904Z" fill="#FFCD00" fill-rule="nonzero" fill-opacity="1" transform="matrix(1.0148 0 0 1 503 331)"/><path d="M265.656 44.1146C265.536 44.0193 265.243 43.803 265.053 43.6731 264.769 43.474 264.546 43.3269 264.519 43.3095 264.477 43.2835 264.459 43.2316 264.477 43.197 264.494 43.1623 264.537 43.1364 264.58 43.1537 264.624 43.1711 264.796 43.2576 265.2 43.4134 265.726 43.6212 265.751 43.6126 265.941 43.6904 266.104 43.7511 266.173 43.7164 266.225 43.5519 266.25 43.4567 266.612 42.6084 266.397 41.4916 266.267 40.8511 266.001 40.1412 265.268 39.4313 265.226 39.3966 265.183 39.3447 265.096 39.3534 265.036 39.3534 264.993 39.414 264.942 39.5439 264.803 39.9074 264.218 40.6173 263.521 41.0069 262.78 41.4137 261.774 41.2146 261.351 41.128 261.282 41.1107 261.222 41.102 261.197 41.1454 261.179 41.18 261.188 41.2146 261.231 41.2839 261.36 41.5003 261.687 41.8812 261.842 42.6343 261.92 42.9892 262.023 43.5952 261.955 44.305 261.886 44.963 261.678 45.465 261.644 45.5603 261.609 45.6469 261.566 45.7161 261.601 45.794 261.636 45.8633 261.705 45.8719 261.825 45.8979 261.885 45.9152 262.273 46.0104 262.789 46.0018 263.254 46.0018 263.822 45.8806 264.296 45.6469 265.252 45.1966 265.708 44.5128 265.76 44.4435 265.811 44.3743 265.845 44.3137 265.837 44.2618 265.82 44.1926 265.777 44.1665 265.691 44.0973L265.656 44.1146Z" fill="#0B8BEE" fill-rule="nonzero" fill-opacity="1" transform="matrix(1.0148 0 0 1 503 331)"/></g></g></g></g></g></g></svg>